<svg xmlns="http://www.w3.org/2000/svg" xmlns:xlink="http://www.w3.org/1999/xlink" viewBox="0 0 390.7 307.5"><defs><style>.cls-1{fill:#ffb777}.cls-2{fill:#4460aa}.cls-3{fill:#fff}.cls-7{fill:#ccc;opacity:.4}</style></defs><g id="Layer_2" data-name="Layer 2"><g id="Layer_1-2" data-name="Layer 1"><circle cx="240" cy="150.7" r="150.7" class="cls-1"/><rect width="289.9" height="187.4" x="44.8" y="64.8" class="cls-2" rx="18.6"/><path d="M67.5 73H312a14.3 14.3 0 0 1 14.5 14v143a14.3 14.3 0 0 1-14.5 14H67.5a14.3 14.3 0 0 1-14.6-14V87a14.3 14.3 0 0 1 14.6-14Z" class="cls-3"/><path d="M74.5 97.9h56.4v4.1H74.5zM74.5 105.9h34.4v3.9H74.5zM122.8 105.9h108.4v3.9H122.8zM92.4 113.9h47.4v4.1H92.4zM107.6 121.9H164v4.1h-56.4zM167.7 121.9H215v4.6h-47.3zM107.5 129.9h43.6v3.9h-43.6zM155.3 129.9h89.9v4.3h-89.9zM74.5 140.7h56.4v4.1H74.5zM74.5 148.8h34.4v3.9H74.5zM122.8 148.8h108.4v3.9H122.8zM92.4 156.8h47.4v4.1H92.4zM107.6 164.8H164v4.1h-56.4zM167.7 164.8H215v4.6h-47.3zM107.5 172.8h43.6v3.9h-43.6zM155.3 172.8h89.9v4.3h-89.9zM74.5 183.6h56.4v4.1H74.5zM74.5 191.6h34.4v3.9H74.5zM122.8 191.6h108.4v3.9H122.8zM92.4 199.6h47.4v4.1H92.4zM107.6 207.7H164v4.1h-56.4zM167.7 207.7H215v4.6h-47.3zM107.5 215.7h43.6v3.9h-43.6zM155.3 215.7h89.9v4.3h-89.9z" class="cls-1" opacity=".5"/><path stroke="#4460aa" stroke-width=".5" d="M54.7 251.2.8 291.8h377.3l-52.7-41.2-270.7.6z" class="cls-3"/><path d="M16.2 306.6.8 291.8h377.3l-13.9 15.7-348-.9z" class="cls-2"/><path d="m35.3 270.4 305.3-.4-16.4-13.4H54l-18.7 13.8zM147 285.4l16.1-12.7 58.7-.3 17 12.7-91.8.3z" class="cls-7"/><path fill="#329199" d="M371.6 170.8q-16.1 11-24.5 17c-1.9 1.4-3.4 2.5-4.6 3.2a28 28 0 0 1-4.6 2.4 14.3 14.3 0 0 1-5.4 1.2h-.1a14.3 14.3 0 0 1-5.5-1.2 28 28 0 0 1-4.6-2.4c-1.2-.7-2.7-1.8-4.6-3.2q-6.6-4.9-24.5-17a26 26 0 0 1-5-4.3v39.2a7.9 7.9 0 0 0 7.9 7.8h72.6a7.9 7.9 0 0 0 7.8-7.8v-39.2a26.7 26.7 0 0 1-4.9 4.3Z"/><path fill="#333" d="M293.2 175.9q17.9 12 24.5 17l4.6 3.2a27.3 27.3 0 0 0 4.6 2.4 14 14 0 0 0 5.5 1.2 14.1 14.1 0 0 0 5.5-1.2 27.3 27.3 0 0 0 4.6-2.4l4.6-3.2q8.4-6 24.5-17a27.5 27.5 0 0 0 4.7-4 12 12 0 0 0 .3-2.4 8 8 0 0 0-8-7.9h-72.5a7 7 0 0 0-5.8 2.6 10 10 0 0 0-2 6.4 7.5 7.5 0 0 0 0 1.1 26.3 26.3 0 0 0 5 4.2Z" opacity=".1"/><path fill="#64d7c0" d="M293.2 171q17.9 12 24.5 17l4.6 3.1a27.3 27.3 0 0 0 4.6 2.4 14 14 0 0 0 5.5 1.2 14.1 14.1 0 0 0 5.5-1.2 27.3 27.3 0 0 0 4.6-2.4c1.2-.7 2.7-1.8 4.6-3.2q8.4-6 24.5-17a27.5 27.5 0 0 0 4.7-4 12 12 0 0 0 .3-2.4 8 8 0 0 0-8-7.9h-72.5a7 7 0 0 0-5.8 2.6 10 10 0 0 0-2 6.4 7.5 7.5 0 0 0 0 1.2 26.3 26.3 0 0 0 5 4.1Z"/></g></g></svg>