<svg xmlns="http://www.w3.org/2000/svg" viewBox="0 0 507.7 437.4"><defs><style>.cls-1{fill:#ffb777}.cls-3{fill:#4460aa}.cls-6{fill:#f0f0f0;opacity:.5}</style></defs><circle cx="290.6" cy="217.1" r="217.1" class="cls-1"/><path fill="#e0e0e0" d="M273.2 429H130.3l25-49.4h99l18.9 49.4z"/><path d="M118.7 425.4h167.8v12H118.7z" class="cls-3"/><path fill="#f6f6f6" d="M412.7 94v282.5a13.2 13.2 0 0 1-13.2 13.1H13.2A13.2 13.2 0 0 1 0 376.5V94a13.2 13.2 0 0 1 13.2-13.3h386.3a13.2 13.2 0 0 1 13.2 13.3Z"/><path d="M412.7 94v236.2H0V94.1a13.2 13.2 0 0 1 13.2-13.3h386.3a13.2 13.2 0 0 1 13.2 13.3Z" class="cls-3"/><path fill="#fff" d="M15.1 97.8h384.2v222.5H15.1z"/><circle cx="203.2" cy="359.4" r="9.1" class="cls-3"/><rect width="152.7" height="76.4" x="47.1" y="127.1" class="cls-6" rx="6.5"/><rect width="152.7" height="76.4" x="47.1" y="217.1" class="cls-6" rx="6.5"/><rect width="152.7" height="76.4" x="213" y="127.1" class="cls-6" rx="6.5"/><rect width="242.2" height="124.7" x="213" y="217.1" fill="#329199" rx="6.5"/><path d="M241.1 152h32.8v2.4h-32.8zM241.1 156.7h20.1v2.3h-20.1zM269.2 156.7h63.1v2.3h-63.1zM251.5 161.3h27.6v2.4h-27.6zM260.4 166h32.8v2.4h-32.8zM295.4 166h27.5v2.7h-27.5zM260.3 170.6h25.4v2.3h-25.4zM288.1 170.6h52.3v2.5h-52.3zM241.1 176.9h32.8v2.4h-32.8zM73.8 152h32.8v2.4H73.8zM73.8 156.7h20.1v2.3H73.8zM102 156.7h63.1v2.3H102zM84.3 161.3h27.6v2.4H84.3zM93.1 166h32.8v2.4H93.1zM128.1 166h27.5v2.7h-27.5zM93 170.6h25.4v2.3H93zM120.8 170.6h52.3v2.5h-52.3zM73.8 176.9h32.8v2.4H73.8z" class="cls-1"/><g opacity=".8"><path d="M73.8 241.1h32.8v2.4H73.8zM73.8 245.8h20.1v2.3H73.8zM102 245.8h63.1v2.3H102zM84.3 250.4h27.6v2.4H84.3zM93.1 255.1h32.8v2.4H93.1zM128.1 255.1h27.5v2.7h-27.5zM93 259.8h25.4v2.3H93zM120.8 259.8h52.3v2.5h-52.3zM73.8 266.1h32.8v2.4H73.8z" class="cls-1"/></g><text fill="#64d7c0" font-family="OpenSans-Semibold,Open Sans" font-size="72.8" font-weight="600" transform="translate(241.3 302.7)">SMTP</text></svg>