<svg xmlns="http://www.w3.org/2000/svg" xmlns:xlink="http://www.w3.org/1999/xlink" viewBox="0 0 640.3 612.1"><defs><linearGradient id="d"><stop offset=".3" stop-color="#dcdcdc" stop-opacity="0"/><stop offset="1" stop-color="#c8c8c8"/></linearGradient><linearGradient id="c"><stop offset="0" stop-color="#4460aa"/><stop offset=".5" stop-color="#2b4a9c"/></linearGradient><linearGradient id="f" x1="0" x2="1" y1="0" y2="0" gradientTransform="matrix(29.88 0 0 -29.88 203.6 167.9)" gradientUnits="userSpaceOnUse" spreadMethod="pad"><stop offset="0" stop-color="#e5c6d6"/><stop offset=".4" stop-color="#ead4d0"/><stop offset="1" stop-color="#f0e9cb"/></linearGradient><linearGradient id="i" x1="0" x2="1" y1="0" y2="0" gradientTransform="matrix(10.43999 0 0 -10.43999 243.3 219.2)" gradientUnits="userSpaceOnUse" spreadMethod="pad"><stop offset="0" stop-color="#e5c6d6"/><stop offset=".4" stop-color="#ead4d0"/><stop offset="1" stop-color="#f0e9cb"/></linearGradient><linearGradient id="h" x1="0" x2="1" y1="0" y2="0" gradientTransform="matrix(68.50239 0 0 -68.50239 211.4 165.4)" gradientUnits="userSpaceOnUse" spreadMethod="pad"><stop offset="0" stop-color="#e5c6d6"/><stop offset=".4" stop-color="#ead4d0"/><stop offset="1" stop-color="#f0e9cb"/></linearGradient><linearGradient id="j" x1="0" x2="1" y1="0" y2="0" gradientTransform="matrix(-21.92 -9.66 -9.66 21.92 245 236.9)" gradientUnits="userSpaceOnUse" spreadMethod="pad"><stop offset="0" stop-color="#e5c6d6"/><stop offset=".4" stop-color="#ead4d0"/><stop offset="1" stop-color="#f0e9cb"/></linearGradient><linearGradient xlink:href="#c" id="e" x1="163.4" x2="274.1" y1="81.6" y2="81.6" gradientUnits="userSpaceOnUse"/><linearGradient xlink:href="#d" id="g" x1="236.1" x2="280.1" y1="171.1" y2="171.1" gradientUnits="userSpaceOnUse" spreadMethod="pad"/></defs><path fill="#ffb777" d="M350.8 0a289.5 289.5 0 1 0 0 579 289.5 289.5 0 0 0 0-579"/><path fill="#fff" d="M342.3 226h186.2c18 0 32.6 14.6 32.6 32.5V380c0 18-14.6 32.5-32.6 32.5H342.3c-18 0-32.6-14.6-32.6-32.5V258.5c0-18 14.6-32.5 32.6-32.5"/><path fill="none" stroke="#f0f0f0" stroke-width="1.5" d="M342.3 226h186.2c18 0 32.6 14.6 32.6 32.5V380c0 18-14.6 32.5-32.6 32.5H342.3c-18 0-32.6-14.6-32.6-32.5V258.5c0-18 14.6-32.5 32.6-32.5Z"/><path fill="#ffb777" d="M434 363.5h107v5.1H434zm-57 0h52v4.6h-52zm71.7-9.5h56.4v5.5h-56.4zm-71.6 0h67.3v5H377zm-18.1-9.6h56.4v4.9H359zm36.3-9.5h129.1v4.6H395.3zm-57.6 0h41v4.6h-41zm0-9.6h67.2v5h-67.2zm96.2-12.9h107.2v5.1H433.9zm-56.9 0h52v4.6h-52zm71.7-9.5h56.4v5.5h-56.4zm-71.6 0h67.3v5H377zm-18.1-9.6h56.4v5H359zm36.3-9.5h129.1v4.6H395.3zm-57.6 0h41v4.6h-41zm0-9.6h67.2v5h-67.2z" opacity=".5"/><path fill="#fff" d="M510.7 99.7h103.7c10 0 18 8 18 18v67.6c0 10-8 18-18 18H510.7c-10 0-18.1-8-18.1-18v-67.5c0-10 8-18.1 18-18.1"/><path fill="none" stroke="#f0f0f0" stroke-width="1.5" d="M510.7 99.7h103.7c10 0 18 8 18 18v67.6c0 10-8 18-18 18H510.7c-10 0-18.1-8-18.1-18v-67.5c0-10 8-18.1 18-18.1Z"/><path fill="#ffb777" d="M561.7 176.2h59.6v2.9h-59.6zm-31.7 0h29v2.6h-29zm40-5.3h31.3v3H570zm-40 0h37.5v2.7h-37.4zm-10-5.3h31.4v2.7H520zm20.2-5.3H612v2.6h-72zm-32 0H531v2.5H508zm0-5.4h37.3v2.8h-37.4zm53.5-7.1h59.6v2.8h-59.6zm-31.7 0h29v2.5h-29zm40-5.3h31.3v3H570zm-40 0h37.5v2.7h-37.4zm-10-5.4h31.4v2.8H520zm20.2-5.3H612v2.6h-72zm-32 0H531v2.6H508zm0-5.3h37.3v2.8h-37.4z" opacity=".5"/><path fill="#fff" d="M33.7 240.5h121.4c11.7 0 21.2 9.5 21.2 21.2v79c0 11.7-9.5 21.2-21.2 21.2H33.7a21.2 21.2 0 0 1-21.1-21.2v-79c0-11.7 9.5-21.2 21.1-21.2"/><path fill="none" stroke="#f0f0f0" stroke-width="1.5" d="M33.7 240.5h121.4c11.7 0 21.2 9.5 21.2 21.2v79c0 11.7-9.5 21.2-21.2 21.2H33.7a21.2 21.2 0 0 1-21.1-21.2v-79c0-11.7 9.5-21.2 21.1-21.2Z"/><path fill="#ffb777" d="M93.5 330h69.8v3.4H93.5zm-37 0h33.7v3H56.4zm46.6-6.2h36.7v3.6h-36.7zm-46.6 0h43.8v3.3H56.5zm-11.8-6.2h36.8v3.2H44.7zm23.6-6.2h84.1v3H68.3zm-37.5 0h26.7v3H30.8zm0-6.2h43.8v3.2H30.8zm62.7-8.4h69.8v3.3H93.5zm-37 0h33.7v3H56.4zm46.6-6.3h36.7v3.6h-36.7zm-46.6 0h43.8v3.3H56.5zm-11.8-6.2h36.8v3.2H44.7zm23.6-6.2h84.1v3H68.3zm-37.5 0h26.7v3H30.8zm0-6.2h43.8v3.2H30.8z" opacity=".5"/><path fill="#f0f0f0" d="M501 546.5v65.6c-13.4 0-26.7-.3-40-.6L161 604v-57.6c0-40.3 47.5-73 106-73h128c58.5 0 106 32.7 106 73"/><path fill="#303293" d="M249.1 511.2c19.9-2.2 40.8-6 55.6-19.5 3.5-3.2 6.8-8 4.8-12.3-1.8-3.9-6.7-4.9-11-5.2-30.4-2.4-60.9 5-89.5 15.7-10.6 4-22 8.7-29.2 17.9-5 6.1-8.5 20.3 4 20.3 4.4 0 9.6-4.8 13.5-6.5 5.4-2.4 11-4.2 16.7-5.5 11.5-2.7 23.4-3.6 35.1-4.9" opacity=".1"/><path fill="#2b4a9c" d="m239.1 450.4-26-4.5s-69.6 28.2-76.5 38.3c-6.9 10-10.7 85-10.7 85s-14 12.1-11.4 15.8c2.7 3.7 27.1-10.9 27.1-10.9l19.1-57.9L270.2 454z"/><path fill="url(#e)" d="M178.6 101.5c-4.9-7.9-5-60.9-5-60.9s-10.2-9.3-10.2-12c0-2.7 5.5-1.1 13.6 2 4.5 1.5 8.6 3.8 12.4 6.6 0 0 7.8 46 11.3 51.1 3.2 3.5 67 9.3 72.1 23.3 3 7.8.5 16.7-6.2 21.7l-23.3 2.7s-62.3-26.6-64.7-34.5z" transform="matrix(1.33333 0 0 -1.33333 -85.3 631.8)"/><path fill="#fff" d="M232.5 358.4c-8 19.3-11.2 40.2-11.3 61 0 6.6-9.7 23.2-4.4 27.3 3.1 2.5 3.5 2.4 7.5 3 9.3 1.3 41.2 21 50.4 19.3 9.2-1.6 18-55.5 17.8-62.8-.3-20.3-2-44.7-17.8-59.7-6-5.7-13.7-12.3-22.5-9.8-10.3 3-15.9 12.5-19.7 21.7"/><path fill="#64d7c0" d="m133.7 405-3.2 1.5 29.8 42.4 38 30 47-22.2-2.3-4.5-41.7-30.5-25.7 11.7-6.2-10z"/><path fill="#329199" d="m160.2 448.8 38 30-33.5-53.8-34.2-18.5ZM175.6 433.5l23.8 39.4 43.7-20.7-41.6-30.5Z"/><path fill="url(#f)" d="M226.9 178.9c-1-3.2-2-6.7-4.5-9-2.3-2.4-5.6-3-8.2-5-2.6-2-5.4-3-7.7-5s-3.3-5-2.8-8c0-.8.6-1.3 1.3-1.3a26.2 26.2 0 0 1 8 4.5c.3.3.7.4 1 .3.5-.1.6-.7.9-1 .5-.5 1.4-.5 2 0 .5.5 1 1.1 1.2 1.8 12.7 8.5 11.8 2.6 12 10.5.7 8.2 1.2 11.7 1.9 16.8-.6 1.2-1.2 1.7-1.7 1.7-1.7 0-3-4.9-3.4-6.3" transform="matrix(1.33333 0 0 -1.33333 -85.3 631.8)"/><path fill="#fff" d="M216.7 382.3a3 3 0 0 0 1.3 3.9 22 22 0 0 0 7.3 3.5c.8.2 1.6.3 2.5.3a6.4 6.4 0 0 0 3.7-2.4 34.8 34.8 0 0 0 8.5-20c.4-3.2 1.6-15.3-1.2-17.7-3-2.7-7 3.5-9 6.2a68.7 68.7 0 0 0-13.1 26.2"/><path fill="url(#g)" d="M254 174c1-1.8 6.4-4 6.4-4s-1.8-9.7-14.2-12c-12.4-2.3-9.9-12.5-9.9-12.5s6.8-4.7 19-3.1c12 1.5 18.2 1.8 21.1 6.4 3 4.7 5 22.5 2.8 29.7-2 7.3-22.1 21.7-22.1 21.7s-4-24.4-3-26.2" style="mix-blend-mode:normal" transform="matrix(1.33333 0 0 -1.33333 -85.3 631.8)"/><path fill="url(#h)" d="M265.2 183.1c-1.2-7.4 2.2-13.5-4.4-19.9-4.6-4.4-11-6.2-17.2-7.5-5.3-1.1-10.6-2-16-2.4-3.7-.3-7.5-.6-10.9-2.2-3.3-1.7-6-5.4-5.1-9 12.4.6 24.8 1.4 37.2 2.2a75 75 0 0 1 19.5 3.1c4.4 1.5 8.8 4.2 10.5 8.4.6 1.8 1 3.6 1 5.5.2 4.5.1 9.1-.3 13.7 0 3-.6 6.1-1.8 9-1.5 3-4.2 4.6-6.7 4.6-2.7 0-5.2-1.8-5.8-5.5" transform="matrix(1.33333 0 0 -1.33333 -85.3 631.8)"/><path fill="#fff" d="m254.1 359.1 11.4 37.5s24.3-.7 26.9-5.1c2.5-4.4-5.9-37.8-17.7-44.9-11.8-7.1-20.3 1.2-20.6 12.5"/><path fill="url(#i)" d="m247.9 229.5-1-.6c-1.2-1-2.3-2-3.1-3.2-.9-1.3-.3-2 0-3.5.8-3.3 1.2-6.7 1-10 0-1.2 0-2.6 1-3 .4-.2 1-.3 1.4-.2a7 7 0 0 1 4.3 3.4c1.8 2.6 2.5 5.8 2.1 9-.4 2.8-1.8 5.3-3.8 7.2-.5.6-1.2.9-1.9.9" transform="matrix(1.33333 0 0 -1.33333 -85.3 631.8)"/><path fill="url(#j)" d="M230.9 249.6c-1.4-.4-2.7-1-3.9-1.9-1.3-.8-2.5-1.8-3.6-3-5-5.8 2.2-16.9 5.1-22 .8-1.4 1.8-2.8 2.9-4 3.2-3 8-3.7 12-1.7 2.9 1.6 4.9 4.3 5.8 7.4.9 3 1 6.3.4 9.4-.5 4.5-2.6 8.6-5.9 11.7-2.4 2-5.3 3.3-8.4 3.9-.9.2-1.8.4-2.7.4-.6 0-1.2 0-1.7-.2" transform="matrix(1.33333 0 0 -1.33333 -85.3 631.8)"/><path fill="#606161" d="M242.4 319.5c.8-.6 1.2-1.6 1.1-2.5l-.2-3c0-.2 0-.4.2-.7.4-.7 1.6-.4 2.2.3 1.5 1.9.5 4.5.6 6.9 0 1.7.8 3.4 2 4.7 2.8-7.8 2-16.5-2.5-23.5-.4-.7-.8-1.4-1-2.1-.5-1.5 0-3.2-.2-4.8-.4-2.6-3.2-4.3-5.9-4.7-2.6-.4-5.4.1-8 0-2-.1-3.8-.6-5.6-.6-2 0-3.9.2-5.8.8a23.6 23.6 0 0 0-12.2 6.1c-3.8 4.1-4.7 10-5 15.4-.1 3.2 0 6.8 2.4 8.9a9 9 0 0 0 6.5 1.7c2.5 0 4.8-.9 6.7-2.4 1.7-2 3-4.3 4-6.7 0-.3.2-.5.5-.7h.7c1.8.5 3.6.8 5.4.9 1.8 0 3.6-.6 4.9-1.9.2-.3.4-.4.7-.5l.7.1c1.8.7 3.5 1.5 5 2.6 1.3 1.7 2.2 3.6 2.8 5.7"/><path fill="#329199" d="m54.4 427-25.6 37.2L0 417Z"/><path fill="#1c848d" d="m53.1 447.7-14.3 2L0 417Z"/><path fill="none" stroke="#349199" stroke-dasharray="3" stroke-width="1.5" d="M57.5 455.5c20.6 4.7 26.1 8.7 38-3.4 11.7-12 17.6-18.5 29.9-9.8a60.5 60.5 0 0 0 31.2 9.8M248 452.1c23.5-4.6 74.8-5.5 100.1 8a318.6 318.6 0 0 1 81.4 60c30.6 30.7 88.6 14 97.3 6 8.7-8 28.5-10.3 28.5-10.3"/><path fill="#329199" d="m584 534-50.7-50.7 81.8-31.2Z"/><path fill="#1c848d" d="m552 526.1 1.2-22.8 62-51.2Z"/><path fill="#fff" d="M88.1 15H327c10.8 0 19.6 9 19.6 19.8v88.9c0 10.8-8.8 19.6-19.6 19.6H88a19.7 19.7 0 0 1-19.7-19.6v-89c0-10.8 8.8-19.6 19.7-19.6"/><path fill="none" stroke="#f0f0f0" stroke-width="1.5" d="M88.1 15H327c10.8 0 19.6 9 19.6 19.8v88.9c0 10.8-8.8 19.6-19.6 19.6H88a19.7 19.7 0 0 1-19.7-19.6v-89c0-10.8 8.8-19.6 19.7-19.6Z"/><text fill="#4460aa" font-family="OpenSans-Light,Open Sans" font-size="32" transform="translate(88 90)">&lt;</text><text fill="#4460aa" font-family="OpenSans-Light,Open Sans" font-size="44" transform="translate(112 92)">javascript</text><text fill="#4460aa" font-family="OpenSans-Light,Open Sans" font-size="32" transform="translate(313 90)">&gt;</text></svg>